<svg width="112" height="112" viewBox="0 0 112 112" fill="none" xmlns="http://www.w3.org/2000/svg">
<rect width="112" height="112" rx="25.1384" fill="#FFF3E0"/>
<path d="M58.5116 77.6631C54.8583 71.2697 47.9512 66.9314 40.0165 66.9314C32.0819 66.9314 25.1748 71.2697 21.5215 77.7202L21.5786 79.4327H58.4545L58.5116 77.6631ZM40.0165 39.988C37.3671 39.988 34.8262 41.0404 32.9528 42.9139C31.0794 44.7873 30.0269 47.3282 30.0269 49.9776C30.0269 52.627 31.0794 55.1679 32.9528 57.0413C34.8262 58.9147 37.3671 59.9672 40.0165 59.9672C42.666 59.9672 45.2069 58.9147 47.0803 57.0413C48.9537 55.1679 50.0062 52.627 50.0062 49.9776C50.0062 47.3282 48.9537 44.7873 47.0803 42.9139C45.2069 41.0404 42.666 39.988 40.0165 39.988V39.988Z" fill="white"/>
<path d="M40.0165 61.6227C33.5661 61.6227 28.3144 56.371 28.3144 49.9206C28.3144 43.8126 33.1094 38.6751 39.2173 38.2755C40.1878 38.2185 40.9869 38.9035 41.044 39.8739C41.1011 40.8443 40.4161 41.6435 39.4457 41.7005C35.1073 41.986 31.7394 45.5822 31.7394 49.9206C31.7394 54.4873 35.4498 58.1977 40.0165 58.1977C41.5007 58.1977 42.9849 57.7981 44.2407 57.056C45.0399 56.5993 46.1244 56.8277 46.5811 57.6269C47.0378 58.426 46.8095 59.5106 46.0103 59.9673C44.1836 61.0519 42.1286 61.6227 40.0165 61.6227ZM21.5215 79.3757C21.236 79.3757 20.9506 79.3186 20.6652 79.1473C19.866 78.6907 19.5806 77.6632 20.0373 76.8069C23.0056 71.5552 28.029 67.6165 33.8515 66.0181C34.7648 65.7898 35.7352 66.3035 35.9636 67.2169C36.1919 68.1302 35.6782 69.1006 34.7648 69.329C29.8556 70.699 25.5744 74.0669 23.0056 78.5194C22.7202 79.0903 22.1494 79.3757 21.5215 79.3757Z" fill="#090909"/>
<path d="M53.4878 77.6631C57.1411 71.2697 64.0482 66.9314 71.9829 66.9314C79.9175 66.9314 86.8246 71.2697 90.4779 77.7202L90.4208 79.4327H53.5449L53.4878 77.6631ZM71.9829 39.988C69.3334 39.988 66.7925 41.0404 64.9191 42.9139C63.0457 44.7873 61.9932 47.3282 61.9932 49.9776C61.9932 52.627 63.0457 55.1679 64.9191 57.0413C66.7925 58.9147 69.3334 59.9672 71.9829 59.9672C74.6323 59.9672 77.1732 58.9147 79.0466 57.0413C80.92 55.1679 81.9725 52.627 81.9725 49.9776C81.9725 47.3282 80.92 44.7873 79.0466 42.9139C77.1732 41.0404 74.6323 39.988 71.9829 39.988V39.988Z" fill="white"/>
<path d="M71.9824 61.6226C69.8703 61.6226 67.8153 61.0517 66.0457 59.9672C65.2466 59.5105 64.9611 58.4259 65.4749 57.6267C65.9316 56.8276 67.0162 56.5421 67.8153 57.0559C69.0712 57.798 70.5553 58.1976 72.0395 58.1976C76.6062 58.1976 80.3166 54.4871 80.3166 49.9205C80.3166 45.5821 76.9487 41.9858 72.6103 41.7004C71.6399 41.6433 70.9549 40.8442 71.012 39.8738C71.0691 38.9033 71.8683 38.2183 72.8387 38.2754C78.9466 38.675 83.7416 43.8125 83.7416 49.9205C83.6845 56.428 78.4329 61.6226 71.9824 61.6226ZM90.4775 79.3756C89.9067 79.3756 89.2787 79.0901 88.9933 78.5193C86.4816 74.0668 82.2004 70.6989 77.2341 69.3289C76.3208 69.1005 75.807 68.1301 76.0354 67.2168C76.2637 66.3034 77.2341 65.7897 78.1474 66.018C83.9129 67.6163 88.9362 71.5551 91.9617 76.8068C92.4183 77.606 92.1329 78.6905 91.3337 79.1472C91.0483 79.3185 90.7629 79.3756 90.4775 79.3756Z" fill="#090909"/>
<path d="M77.1777 77.4349C72.9536 70.0711 65.076 65.1048 55.9998 65.1048C46.9235 65.1048 39.046 70.0711 34.8218 77.4349L34.8789 79.3757H77.1207L77.1777 77.4349ZM55.9998 34.2797C52.9719 34.2797 50.068 35.4826 47.9269 37.6236C45.7859 39.7646 44.5831 42.6685 44.5831 45.6964C44.5831 48.7243 45.7859 51.6282 47.9269 53.7693C50.068 55.9103 52.9719 57.1131 55.9998 57.1131C59.0277 57.1131 61.9315 55.9103 64.0726 53.7693C66.2136 51.6282 67.4165 48.7243 67.4165 45.6964C67.4165 42.6685 66.2136 39.7646 64.0726 37.6236C61.9315 35.4826 59.0277 34.2797 55.9998 34.2797Z" fill="#FF9C08"/>
<path d="M55.9997 58.8256C48.7501 58.8256 42.8705 52.946 42.8705 45.6964C42.8705 38.4468 48.7501 32.5672 55.9997 32.5672C63.2493 32.5672 69.1289 38.4468 69.1289 45.6964C69.1289 52.946 63.2493 58.8256 55.9997 58.8256ZM55.9997 35.9922C50.6339 35.9922 46.2955 40.3306 46.2955 45.6964C46.2955 51.0623 50.6339 55.4006 55.9997 55.4006C61.3656 55.4006 65.7039 51.0623 65.7039 45.6964C65.7039 40.3306 61.3656 35.9922 55.9997 35.9922ZM34.8217 79.3757C34.5363 79.3757 34.2509 79.3186 33.9655 79.1473C33.1663 78.6907 32.8809 77.6632 33.3376 76.8069C37.9613 68.7011 46.638 63.6206 55.9997 63.6206C65.3614 63.6206 74.0381 68.7011 78.6619 76.8069C79.1186 77.6061 78.8331 78.6907 78.034 79.1473C77.2348 79.604 76.1502 79.3186 75.6935 78.5194C71.6977 71.4411 64.1627 67.0456 55.9997 67.0456C47.8939 67.0456 40.3588 71.4411 36.3059 78.5194C36.0205 79.0903 35.4497 79.3757 34.8217 79.3757Z" fill="#090909"/>
</svg>
