<svg width="98" height="98" viewBox="0 0 98 98" fill="none" xmlns="http://www.w3.org/2000/svg">
<rect width="98" height="98" rx="21.8475" fill="#FFF3E0"/>
<path d="M49.0009 80.9212C66.6302 80.9212 80.9217 66.6297 80.9217 49.0004C80.9217 31.371 66.6302 17.0796 49.0009 17.0796C31.3715 17.0796 17.0801 31.371 17.0801 49.0004C17.0801 66.6297 31.3715 80.9212 49.0009 80.9212Z" fill="white"/>
<path d="M48.9988 69.313C60.2175 69.313 69.312 60.2184 69.312 48.9998C69.312 37.7811 60.2175 28.6865 48.9988 28.6865C37.7801 28.6865 28.6855 37.7811 28.6855 48.9998C28.6855 60.2184 37.7801 69.313 48.9988 69.313Z" fill="#FF9C08"/>
<path d="M48.9998 82.6618C30.4277 82.6618 15.3379 67.5719 15.3379 48.9998C15.3379 30.4277 30.4277 15.3379 48.9998 15.3379C67.5719 15.3379 82.6618 30.4277 82.6618 48.9998C82.6618 67.5719 67.5719 82.6618 48.9998 82.6618ZM48.9998 18.8202C32.343 18.8202 18.8202 32.343 18.8202 48.9998C18.8202 65.6567 32.343 79.1795 48.9998 79.1795C65.6567 79.1795 79.1795 65.6567 79.1795 48.9998C79.1795 32.343 65.6567 18.8202 48.9998 18.8202Z" fill="#090909"/>
<path d="M55.441 54.7451C55.441 52.5977 54.3964 50.6244 52.6552 49.4056L47.2577 45.6912C46.5032 45.1109 46.0389 44.2403 46.0389 43.2536C46.0389 41.6286 47.3738 40.2937 48.9988 40.2937C50.2176 40.2937 51.2623 40.9902 51.7266 42.0929C52.0748 42.9635 53.1195 43.3697 53.9901 43.0215C54.8607 42.6733 55.2669 41.6286 54.9187 40.758C54.1642 38.9008 52.5972 37.5659 50.74 37.0436V36.8114C50.74 35.8248 49.9855 35.0703 48.9988 35.0703C48.0122 35.0703 47.2577 35.8248 47.2577 36.8114V37.0436C44.5299 37.7981 42.5566 40.2937 42.5566 43.2536C42.5566 45.343 43.5433 47.2582 45.2844 48.477L50.6819 52.2495C51.4945 52.8299 51.9588 53.7004 51.9588 54.6871C51.9588 56.3121 50.6239 57.647 48.9988 57.647C47.8381 57.647 46.7354 56.9506 46.2711 55.8478C45.8648 54.9773 44.8782 54.571 44.0076 54.9192C43.137 55.3255 42.7308 56.3121 43.079 57.1827C43.8915 58.9819 45.4005 60.3168 47.2577 60.8391V61.1873C47.2577 62.174 48.0122 62.9285 48.9988 62.9285C49.9855 62.9285 50.74 62.174 50.74 61.1873V60.9552C53.4677 60.2007 55.441 57.7051 55.441 54.7451Z" fill="white"/>
</svg>
