<svg width="98" height="98" viewBox="0 0 98 98" fill="none" xmlns="http://www.w3.org/2000/svg">
<rect width="98" height="98" rx="21.8475" fill="#FFF3E0"/>
<path d="M51.1984 67.955C48.0017 62.3608 41.958 58.5647 35.0152 58.5647C28.0724 58.5647 22.0287 62.3608 18.832 68.0049L18.882 69.5034H51.1484L51.1984 67.955ZM35.0152 34.9893C32.697 34.9893 30.4737 35.9102 28.8344 37.5494C27.1952 39.1886 26.2743 41.4119 26.2743 43.7302C26.2743 46.0484 27.1952 48.2717 28.8344 49.9109C30.4737 51.5502 32.697 52.4711 35.0152 52.4711C37.3334 52.4711 39.5567 51.5502 41.196 49.9109C42.8352 48.2717 43.7561 46.0484 43.7561 43.7302C43.7561 41.4119 42.8352 39.1886 41.196 37.5494C39.5567 35.9102 37.3334 34.9893 35.0152 34.9893V34.9893Z" fill="white"/>
<path d="M35.0143 53.9195C29.3702 53.9195 24.775 49.3242 24.775 43.6801C24.775 38.3357 28.9706 33.8403 34.3151 33.4907C35.1642 33.4407 35.8634 34.0401 35.9134 34.8892C35.9633 35.7384 35.364 36.4376 34.5148 36.4876C30.7188 36.7373 27.7719 39.8841 27.7719 43.6801C27.7719 47.676 31.0185 50.9226 35.0143 50.9226C36.313 50.9226 37.6116 50.5729 38.7105 49.9236C39.4098 49.524 40.3588 49.7238 40.7584 50.4231C41.1579 51.1224 40.9581 52.0714 40.2589 52.471C38.6605 53.42 36.8624 53.9195 35.0143 53.9195ZM18.8311 69.4533C18.5814 69.4533 18.3317 69.4034 18.0819 69.2535C17.3827 68.8539 17.1329 67.9549 17.5325 67.2056C20.1298 62.6104 24.5252 59.164 29.6199 57.7655C30.4191 57.5657 31.2682 58.0152 31.468 58.8144C31.6678 59.6135 31.2183 60.4627 30.4191 60.6625C26.1236 61.8612 22.3775 64.8081 20.1298 68.7041C19.8801 69.2036 19.3806 69.4533 18.8311 69.4533Z" fill="#090909"/>
<path d="M46.8027 67.955C49.9994 62.3608 56.0431 58.5647 62.9859 58.5647C69.9287 58.5647 75.9724 62.3608 79.1691 68.0049L79.1191 69.5034H46.8527L46.8027 67.955ZM62.9859 34.9893C60.6677 34.9893 58.4444 35.9102 56.8052 37.5494C55.1659 39.1887 54.245 41.4119 54.245 43.7302C54.245 46.0484 55.1659 48.2717 56.8052 49.9109C58.4444 51.5502 60.6677 52.4711 62.9859 52.4711C65.3041 52.4711 67.5274 51.5502 69.1667 49.9109C70.8059 48.2717 71.7268 46.0484 71.7268 43.7302C71.7268 41.4119 70.8059 39.1887 69.1667 37.5494C67.5274 35.9102 65.3041 34.9893 62.9859 34.9893V34.9893Z" fill="white"/>
<path d="M62.9844 53.9195C61.1363 53.9195 59.3382 53.42 57.7898 52.471C57.0905 52.0714 56.8408 51.1224 57.2903 50.4231C57.6899 49.7238 58.6389 49.4741 59.3382 49.9236C60.437 50.5729 61.7357 50.9226 63.0343 50.9226C67.0302 50.9226 70.2768 47.676 70.2768 43.6801C70.2768 39.8841 67.3299 36.7373 63.5338 36.4876C62.6847 36.4376 62.0853 35.7384 62.1353 34.8892C62.1852 34.0401 62.8845 33.4407 63.7336 33.4907C69.078 33.8403 73.2737 38.3357 73.2737 43.6801C73.2237 49.3742 68.6285 53.9195 62.9844 53.9195ZM79.1675 69.4533C78.6681 69.4533 78.1186 69.2036 77.8689 68.7041C75.6712 64.8081 71.9251 61.8612 67.5796 60.6625C66.7804 60.4627 66.3309 59.6135 66.5307 58.8144C66.7305 58.0152 67.5796 57.5657 68.3788 57.7655C73.4235 59.164 77.8189 62.6104 80.4662 67.2056C80.8658 67.9049 80.616 68.8539 79.9168 69.2535C79.667 69.4034 79.4173 69.4533 79.1675 69.4533Z" fill="#090909"/>
<path d="M67.5283 67.7549C63.8321 61.3116 56.9393 56.9661 48.9975 56.9661C41.0558 56.9661 34.163 61.3116 30.4668 67.7549L30.5167 69.4531H67.4783L67.5283 67.7549ZM48.9975 29.9941C46.3481 29.9941 43.8072 31.0466 41.9338 32.92C40.0604 34.7934 39.0079 37.3343 39.0079 39.9838C39.0079 42.6332 40.0604 45.1741 41.9338 47.0475C43.8072 48.9209 46.3481 49.9734 48.9975 49.9734C51.6469 49.9734 54.1878 48.9209 56.0613 47.0475C57.9347 45.1741 58.9872 42.6332 58.9872 39.9838C58.9872 37.3343 57.9347 34.7934 56.0613 32.92C54.1878 31.0466 51.6469 29.9941 48.9975 29.9941Z" fill="#FF9C08"/>
<path d="M48.9986 51.4722C42.6552 51.4722 37.5105 46.3276 37.5105 39.9842C37.5105 33.6407 42.6552 28.4961 48.9986 28.4961C55.342 28.4961 60.4867 33.6407 60.4867 39.9842C60.4867 46.3276 55.342 51.4722 48.9986 51.4722ZM48.9986 31.493C44.3035 31.493 40.5074 35.289 40.5074 39.9842C40.5074 44.6793 44.3035 48.4753 48.9986 48.4753C53.6937 48.4753 57.4898 44.6793 57.4898 39.9842C57.4898 35.289 53.6937 31.493 48.9986 31.493ZM30.4679 69.4535C30.2181 69.4535 29.9684 69.4036 29.7186 69.2537C29.0194 68.8541 28.7696 67.9551 29.1692 67.2059C33.215 60.1132 40.8071 55.6678 48.9986 55.6678C57.1901 55.6678 64.7822 60.1132 68.828 67.2059C69.2276 67.9051 68.9778 68.8541 68.2786 69.2537C67.5793 69.6533 66.6303 69.4036 66.2307 68.7043C62.7343 62.5107 56.1412 58.6647 48.9986 58.6647C41.906 58.6647 35.3128 62.5107 31.7665 68.7043C31.5168 69.2038 31.0173 69.4535 30.4679 69.4535Z" fill="#090909"/>
</svg>
