<svg width="98" height="98" viewBox="0 0 98 98" fill="none" xmlns="http://www.w3.org/2000/svg">
<rect width="98" height="98" rx="21.8475" fill="#FFF3E0"/>
<path d="M22.641 80.777C20.526 80.8299 18.834 79.1908 18.834 77.0758V22.5087C18.834 19.6006 21.2134 17.2212 24.1215 17.2212H71.7091V75.3838L22.641 80.777Z" fill="white"/>
<path d="M79.1132 80.6716V29.9115C79.1132 27.0034 76.7338 24.624 73.8257 24.624H31.5256C28.6175 24.624 26.2381 27.0034 26.2381 29.9115V77.1819C26.2381 79.1382 24.6518 80.7774 22.6426 80.7774L79.1132 80.6716Z" fill="white"/>
<path d="M22.5361 82.3636C21.1613 82.3636 19.8395 81.8349 18.8877 80.8831C17.8302 79.8785 17.3015 78.5037 17.3015 77.0761V22.509C17.2486 18.702 20.3153 15.6353 24.1223 15.6353H61.1349C62.0338 15.6353 62.7212 16.3226 62.7212 17.2215C62.7212 18.1204 62.0338 18.8078 61.1349 18.8078H24.1223C22.0602 18.8078 20.4211 20.4469 20.4211 22.509V77.0761C20.4211 77.6577 20.6326 78.1865 21.0556 78.6095C21.4786 79.0325 22.0073 79.244 22.589 79.1911C23.7522 79.1382 24.6511 78.2394 24.6511 77.0761V29.9115C24.6511 26.1045 27.7178 23.0378 31.5249 23.0378H73.8249C77.6319 23.0378 80.6987 26.1045 80.6987 29.9115V80.6716C80.6987 81.5705 80.0113 82.2579 79.1124 82.2579C78.2136 82.2579 77.5262 81.5705 77.5262 80.6716V29.9115C77.5262 27.8494 75.8871 26.2103 73.8249 26.2103H31.5249C29.4627 26.2103 27.8236 27.8494 27.8236 29.9115V77.0761C27.8236 79.9314 25.55 82.2579 22.6947 82.3636C22.6418 82.3636 22.589 82.3636 22.5361 82.3636Z" fill="#090909"/>
<path d="M71.7085 18.8078H69.0648C68.1659 18.8078 67.4785 18.1204 67.4785 17.2215C67.4785 16.3226 68.1659 15.6353 69.0648 15.6353H71.7085C72.6074 15.6353 73.2948 16.3226 73.2948 17.2215C73.2948 18.1204 72.6074 18.8078 71.7085 18.8078Z" fill="#090909"/>
<path d="M63.25 50.5329H42.0999C41.201 50.5329 40.5137 49.8455 40.5137 48.9466C40.5137 48.0477 41.201 47.3604 42.0999 47.3604H63.25C64.1488 47.3604 64.8362 48.0477 64.8362 48.9466C64.8362 49.8455 64.1488 50.5329 63.25 50.5329Z" fill="#FF9C08"/>
<path d="M63.25 58.4645H42.0999C41.201 58.4645 40.5137 57.7771 40.5137 56.8782C40.5137 55.9794 41.201 55.292 42.0999 55.292H63.25C64.1488 55.292 64.8362 55.9794 64.8362 56.8782C64.8362 57.7771 64.1488 58.4645 63.25 58.4645Z" fill="#FF9C08"/>
<path d="M63.25 66.3952H42.0999C41.201 66.3952 40.5137 65.7078 40.5137 64.8089C40.5137 63.91 41.201 63.2227 42.0999 63.2227H63.25C64.1488 63.2227 64.8362 63.91 64.8362 64.8089C64.8362 65.7078 64.1488 66.3952 63.25 66.3952Z" fill="#FF9C08"/>
<path d="M63.2507 82.258H57.9632C57.0643 82.258 56.377 81.5706 56.377 80.6717C56.377 79.7728 57.0643 79.0854 57.9632 79.0854H63.2507C64.1496 79.0854 64.837 79.7728 64.837 80.6717C64.837 81.5706 64.1496 82.258 63.2507 82.258Z" fill="#FF9C08"/>
</svg>
