<svg width="186" height="36" viewBox="0 0 186 36" fill="none" xmlns="http://www.w3.org/2000/svg">
<path d="M11.7831 35.4452H4.77443V17.9731H0V12.2846H4.77425V8.23678C4.77425 3.44013 6.88591 0 13.8756 0C15.3539 0 17.6748 0.297977 17.6748 0.297977V5.5801H15.2371C12.7533 5.5801 11.7835 6.33564 11.7835 8.42446V12.2846H17.5818L17.0655 17.9731H11.7833L11.7831 35.4452ZM27.8647 11.83C27.7625 11.83 27.6575 11.8337 27.5535 11.8363C21.0546 11.8363 18.0812 16.7249 18.0812 23.6643C18.0812 32.406 21.9381 35.9048 27.6043 35.9048C30.8461 35.9048 32.9759 34.5402 34.2705 31.9939V35.4476H40.9367V12.287H34.2705V15.8488C33.2135 13.5572 31.0241 11.8571 27.8647 11.83ZM29.5597 17.3028C32.2892 17.3028 33.9275 19.2067 33.9275 22.4452L33.9338 25.7529C33.9338 27.9356 32.5807 30.4893 29.5597 30.4893C24.9153 30.4893 25.0393 25.4743 25.0393 23.804C25.0393 18.1854 27.5139 17.3028 29.5597 17.3028ZM43.6289 23.8685C43.6289 21.0541 43.4942 11.8451 55.492 11.8451C60.3081 11.8451 62.3191 13.3764 62.3191 13.3764L60.7028 18.3898C60.7028 18.3898 58.6943 17.2838 56.0773 17.2838C52.7254 17.2838 50.5866 19.227 50.5866 22.6459L50.5903 25.0974C50.5903 28.3826 52.654 30.5756 56.0842 30.5756C58.4684 30.5756 60.6658 29.4592 60.6658 29.4592L62.278 34.3678C62.278 34.3678 60.4392 35.9089 55.5257 35.9089C44.1019 35.9089 43.6291 27.6466 43.6291 23.8685H43.6289ZM101.406 11.8363C107.905 11.8363 110.925 16.7249 110.925 23.6643C110.925 32.406 107.068 35.9048 101.402 35.9048C98.16 35.9048 95.7636 34.5404 94.469 31.9939V35.4476L87.8867 35.445V0.704208L94.8754 0.0946756V15.535C95.8841 12.8337 99.199 11.8363 101.406 11.8363H101.406ZM99.4464 17.3028C96.7168 17.3028 94.8754 19.2067 94.8754 22.4452L94.8689 25.7529C94.8648 27.9356 96.1442 30.4893 99.4464 30.4893C104.091 30.4893 103.967 25.4743 103.967 23.804C103.967 18.1854 101.492 17.3028 99.4464 17.3028ZM74.4452 11.8555C67.074 11.8555 63.1825 15.8744 63.1825 23.0166V24.3435C63.1825 33.6134 68.6474 36 75.1626 36C81.4953 36 84.3618 34.2287 84.3618 34.2287L83.054 29.5116C83.054 29.5116 79.6822 30.9463 76.0005 30.9463C72.1838 30.9463 70.5424 29.9735 70.1216 26.3055H84.9205V22.5213C84.9205 14.7739 80.5531 11.8553 74.445 11.8553L74.4452 11.8555ZM74.6228 16.5788C77.1744 16.5788 78.8277 18.1435 78.737 21.7722H70.1345C70.2836 17.953 72.0666 16.579 74.6228 16.579V16.5788ZM124.86 11.8237C117.291 11.8237 113.306 16.0895 113.306 23.734C113.306 34.2227 120.175 35.9111 124.873 35.9111C131.75 35.9111 136.326 32.2083 136.326 23.8292C136.326 15.1081 131.181 11.8237 124.86 11.8237V11.8237ZM124.765 17.3217C128.094 17.3217 129.412 19.8129 129.412 22.6485V25.0864C129.412 28.5216 127.567 30.5084 124.752 30.5084C122.12 30.5084 120.27 28.6499 120.27 25.0864V22.6485C120.27 18.8481 122.472 17.3217 124.765 17.3217V17.3217ZM150.249 11.8237C142.679 11.8237 138.694 16.0895 138.694 23.734C138.694 34.2227 145.564 35.9111 150.262 35.9111C157.139 35.9111 161.715 32.2083 161.715 23.8292C161.715 15.1081 156.57 11.8237 150.249 11.8237V11.8237ZM150.154 17.3217C153.482 17.3217 154.801 19.8129 154.801 22.6485V25.0864C154.801 28.5216 152.955 30.5084 150.141 30.5084C147.509 30.5084 145.659 28.6499 145.659 25.0864V22.6485C145.659 18.8481 147.86 17.3217 150.154 17.3217V17.3217ZM164.356 35.4452V0.704208L171.365 0.0946756V23.3802L178.319 12.2846H185.721L178.467 23.7764L186 35.4452H178.577L171.365 24.1149V35.4452H164.356Z" fill="#090909"/>
</svg>
