<svg width="152" height="50" viewBox="0 0 152 50" fill="none" xmlns="http://www.w3.org/2000/svg">
<path d="M18.7206 0H20.0723C24.765 0.102804 29.3812 2.00467 32.6966 5.3715C31.4725 6.63085 30.2228 7.83879 29.0241 9.09814C27.1623 7.40188 24.918 6.09113 22.4696 5.62851C18.8481 4.85748 14.946 5.55141 11.911 7.63319C8.59553 9.81777 6.3512 13.5187 5.86662 17.4767C5.33104 21.3832 6.42771 25.4954 8.95258 28.5281C11.3754 31.4837 15.0735 33.3341 18.8991 33.4627C22.4696 33.6683 26.1932 32.5631 28.7946 30.0444C30.8349 28.2711 31.7785 25.5725 32.0846 22.951C27.8509 22.951 23.6173 22.9767 19.3836 22.951V17.6566H37.2108C38.129 23.3365 36.8028 29.736 32.5181 33.7968C29.6617 36.6753 25.7086 38.3715 21.679 38.7057C17.7769 39.0912 13.7473 38.3458 10.2788 36.444C6.12166 34.208 2.80616 30.4299 1.17392 25.9837C-0.356311 21.8972 -0.381815 17.271 1.0464 13.1589C2.34709 9.40655 4.84647 6.09113 8.05995 3.77804C11.1459 1.49066 14.895 0.231309 18.7206 0Z" fill="#090909"/>
<path d="M120.992 1.33614H126.449V38.037C124.639 38.037 122.802 38.0627 120.992 38.0113C121.017 25.8034 120.992 13.5698 120.992 1.33614V1.33614Z" fill="#090909"/>
<path d="M49.3499 14.0588C52.7164 13.4163 56.3635 14.1359 59.1434 16.1663C61.6683 17.9653 63.428 20.7924 63.9636 23.8765C64.6522 27.4489 63.7851 31.3554 61.4897 34.1825C59.0159 37.3437 54.9607 39.04 51.0076 38.783C47.3861 38.5774 43.8666 36.7526 41.7242 33.7713C39.3014 30.4816 38.7148 25.9583 40.041 22.1032C41.3672 17.9653 45.1163 14.8041 49.3499 14.0588V14.0588ZM50.115 18.942C48.7378 19.3018 47.4626 20.0985 46.5445 21.2293C44.0706 24.2106 44.2236 29.0681 46.9525 31.8438C48.5083 33.4372 50.8546 34.1825 53.0225 33.7456C55.0373 33.3858 56.797 32.0237 57.7662 30.2246C59.4494 27.1662 58.9649 22.9513 56.389 20.5611C54.7312 19.0191 52.3083 18.3766 50.115 18.942Z" fill="#090909"/>
<path d="M76.3819 14.0581C80.233 13.3128 84.4411 14.3922 87.3231 17.1165C92.0158 21.3572 92.5259 29.2988 88.5218 34.182C86.0989 37.2661 82.1713 38.9623 78.2947 38.7824C74.5966 38.6796 70.9496 36.8292 68.7563 33.7707C66.2824 30.4039 65.7468 25.7777 67.1495 21.8455C68.5522 17.8361 72.2248 14.7777 76.3819 14.0581V14.0581ZM77.147 18.9413C75.7698 19.3011 74.4946 20.0978 73.5765 21.203C71.1281 24.1329 71.2301 28.9133 73.857 31.7147C75.4128 33.3852 77.8356 34.2077 80.08 33.745C82.0693 33.3595 83.8545 32.0231 84.8237 30.224C86.4814 27.1399 85.9969 22.9249 83.3955 20.5347C81.7377 18.9927 79.3149 18.3758 77.147 18.9413Z" fill="#090909"/>
<path d="M99.313 15.5491C102.246 13.6986 106.148 13.1846 109.311 14.7781C110.305 15.215 111.121 15.9603 111.912 16.7056C111.937 16.0117 111.912 15.2921 111.937 14.5725C113.646 14.5982 115.355 14.5725 117.089 14.5982V37.2664C117.064 40.6846 116.197 44.3084 113.748 46.8014C111.07 49.5514 106.964 50.3995 103.266 49.8341C99.313 49.243 95.87 46.3388 94.3397 42.6635C95.87 41.9182 97.4767 41.3271 99.058 40.6332C99.9506 42.7407 101.761 44.5397 104.031 44.9509C106.301 45.3621 108.928 44.7967 110.407 42.8949C111.988 40.9416 111.988 38.2687 111.912 35.8785C110.739 37.0351 109.387 38.0631 107.755 38.4486C104.21 39.4509 100.308 38.2173 97.5787 35.8014C94.8243 33.3855 93.1921 29.6589 93.3451 25.958C93.4216 21.7687 95.768 17.7337 99.313 15.5491V15.5491ZM104.592 18.8388C103.037 19.0958 101.583 19.9696 100.588 21.1776C98.1908 24.0561 98.1908 28.6566 100.614 31.4837C101.991 33.1542 104.21 34.0794 106.352 33.8481C108.367 33.6425 110.229 32.3575 111.223 30.5841C112.907 27.5771 112.626 23.4907 110.356 20.8692C108.953 19.25 106.709 18.4533 104.592 18.8388V18.8388Z" fill="#090909"/>
<path d="M133 16.86C136.06 13.9815 140.778 13.0048 144.706 14.5212C148.43 15.9347 150.801 19.5072 152 23.1824C146.466 25.4955 140.957 27.7829 135.423 30.0959C136.188 31.5609 137.361 32.8974 138.942 33.4371C141.161 34.2338 143.813 33.9511 145.675 32.4604C146.415 31.895 147.001 31.1497 147.562 30.4301C148.965 31.381 150.368 32.3062 151.771 33.2572C149.781 36.2642 146.44 38.3717 142.844 38.7058C138.866 39.1941 134.632 37.652 132.056 34.5165C127.822 29.5819 128.23 21.3062 133 16.86V16.86ZM135.729 21.6146C134.862 22.874 134.504 24.416 134.53 25.9324C138.228 24.3903 141.926 22.8483 145.624 21.2805C145.012 19.8413 143.533 18.9674 142.028 18.7361C139.605 18.2992 137.08 19.61 135.729 21.6146V21.6146Z" fill="#090909"/>
</svg>
