<svg width="192" height="46" viewBox="0 0 192 46" fill="none" xmlns="http://www.w3.org/2000/svg">
<path d="M20.6307 0.0496121C18.1456 0.328254 14.4181 1.48569 12.2973 2.64313C6.59888 5.70819 2.74282 10.488 0.814794 16.8539C0.429188 18.097 -0.0206858 21.4836 0.000736726 23.0697C0.000736726 24.4629 0.429188 27.871 0.686258 28.6854C0.814794 29.0713 1.09329 29.9929 1.32893 30.7002C1.71454 31.9005 3.5783 35.6729 3.89964 35.9301C3.96391 35.9944 4.30667 36.4231 4.62801 36.9161C5.42064 38.095 7.49863 40.1955 9.06248 41.3958C10.2621 42.3175 13.6469 44.268 14.0754 44.2894C14.1825 44.2894 14.2039 43.4749 14.1396 42.4032C13.9897 40.024 14.4395 36.7875 15.4036 33.4867C15.5749 32.9294 15.7035 32.2006 15.7035 31.8791C15.7035 31.5576 15.7892 31.2147 15.8963 31.1075C16.0034 30.9789 16.1962 30.3573 16.3033 29.7143C16.4318 29.0713 16.6461 28.0853 16.796 27.528C17.0102 26.6921 16.9888 26.3706 16.6889 25.4703C16.2605 24.0986 16.239 21.8694 16.6675 20.7977C17.6743 18.2471 18.7883 17.2826 20.6735 17.2826C22.9443 17.2826 24.0368 18.9973 23.6084 21.8694C23.4156 23.1769 22.88 25.2346 22.5373 25.8776C22.4516 26.0705 22.3016 26.6063 22.2373 27.0565C22.1517 27.528 21.9803 28.1925 21.8732 28.5568C21.5732 29.3928 22.1517 31.0218 22.9229 31.6433C23.6512 32.2221 25.1722 32.3935 26.5647 32.072C27.5501 31.8577 27.9572 31.6005 28.9854 30.6145C30.2065 29.4142 31.1277 28.021 31.1277 27.3565C31.1277 27.1636 31.2348 26.9064 31.3634 26.7778C31.9632 26.1777 32.2845 21.5051 31.8346 19.5331C31.3419 17.3683 29.8209 15.2463 27.8501 14.0031C25.8792 12.7385 21.8089 12.3742 19.3025 13.2315C17.5458 13.8317 15.982 14.8391 14.9751 16.0179C14.0754 17.0682 13.1328 18.7829 13.1328 19.3831C13.1328 19.5974 13.0256 19.8761 12.8971 20.0047C12.7686 20.1333 12.6186 20.9478 12.5544 21.8266C12.4472 23.134 12.5329 23.7342 12.9185 25.0202C13.1756 25.899 13.6469 26.9279 13.9254 27.3137C14.5038 28.0853 14.5038 28.3854 13.9682 30.443C13.8183 31.0003 13.5612 31.5147 13.4113 31.579C12.0616 32.0935 9.31955 28.8569 8.39838 25.6418C8.05562 24.4201 8.03419 20.069 8.37695 18.7829C8.52691 18.2471 8.78398 17.5183 8.95536 17.1325C9.12674 16.7681 9.2767 16.4038 9.2767 16.318C9.2767 16.2323 9.70515 15.5035 10.2407 14.7105C13.0256 10.5094 17.5458 8.28027 23.2656 8.28027C24.5724 8.28027 25.922 8.36601 26.2862 8.47318C29.2425 9.39484 30.0352 9.69492 31.192 10.3808C33.4413 11.7311 35.0695 13.5745 36.6976 16.661C36.8047 16.8539 36.9546 17.3683 37.0189 17.797C37.1046 18.2257 37.2546 18.6329 37.3617 18.6972C37.4688 18.7615 37.5545 20.1547 37.5545 21.8051C37.5545 24.7845 37.3402 25.9848 36.4405 28.4282C35.4336 31.1075 32.8415 34.0654 30.485 35.2228C29.1354 35.8658 26.6075 36.5732 25.6007 36.5732C24.2511 36.5732 21.5947 35.4586 20.8663 34.5584C20.5235 34.1511 20.2022 34.3012 20.2022 34.8799C20.2022 35.0942 20.1165 35.4586 19.988 35.6729C19.8809 35.8658 19.6881 36.466 19.5809 37.0018C18.9597 39.8311 18.0814 42.1246 16.7318 44.268C16.3247 44.9324 16.6675 45.3182 17.7815 45.4683C18.3384 45.554 19.0882 45.704 19.431 45.8112C20.2879 46.0899 24.9366 46.047 26.5004 45.7683C27.9143 45.5111 30.2065 44.8681 31.2348 44.4394C37.7044 41.7816 42.6102 36.3803 44.731 29.4999C45.8664 25.8347 45.9307 21.5694 44.9024 17.2826C44.5596 15.8893 44.4525 15.5678 43.5314 13.4244C42.2032 10.2951 39.204 6.62985 36.162 4.37928C33.5485 2.45022 30.9777 1.33565 26.9717 0.371122C25.8578 0.113914 21.8946 -0.100426 20.6307 0.0496121ZM77.7646 7.78729C76.9291 7.91589 75.6009 9.28767 75.2582 10.3594C74.894 11.5382 75.2582 12.8028 76.2864 13.7888C78.5572 15.9965 82.499 13.9174 82.0063 10.7452C81.7063 8.73039 79.864 7.44435 77.7646 7.78729ZM54.414 9.0519C54.2212 9.26624 54.2212 35.1157 54.4354 35.4157C54.5426 35.5872 55.4637 35.6515 57.2632 35.6301L59.941 35.6086L60.0481 31.2575C60.1338 27.7209 60.2195 26.8636 60.4766 26.7135C60.648 26.6063 62.1047 26.4992 63.7114 26.4992C67.2247 26.4992 68.7029 26.242 70.3096 25.3846C72.409 24.2486 73.6301 22.6196 74.2941 20.0261C74.7012 18.3971 74.7012 17.2183 74.2727 15.5464C73.8871 14.046 73.7157 13.6816 72.7946 12.4599C71.6592 10.9381 70.5024 10.1022 68.6172 9.43771C67.5675 9.09476 66.6891 9.03046 61.0122 8.96616C57.4774 8.92329 54.4997 8.96616 54.414 9.0519ZM66.175 14.389C67.6103 14.8391 68.3173 15.4821 68.6386 16.6395C69.0456 18.1613 68.7457 19.576 67.846 20.4334C66.8605 21.355 65.9822 21.5694 63.1116 21.5694C61.2264 21.5694 60.648 21.5051 60.3909 21.2264C60.1124 20.9692 60.0481 20.3476 60.0481 17.9041C60.0481 14.046 60.0267 14.0675 63.0045 14.0675C64.2898 14.0675 65.5323 14.1961 66.175 14.389ZM103.75 13.1244C103.75 14.6033 103.643 15.9965 103.536 16.2323C103.386 16.5109 103.086 16.6395 102.572 16.6395C102.186 16.6395 101.822 16.7253 101.779 16.8539C101.758 16.961 101.758 17.7112 101.822 18.5043C101.929 19.9189 101.951 19.9404 102.593 20.0904C102.958 20.1547 103.365 20.2833 103.493 20.3691C103.686 20.4762 103.75 22.1695 103.75 26.4563C103.75 32.2221 103.772 32.4364 104.243 33.2938C105.228 35.1156 106.771 35.7587 109.898 35.6729L111.998 35.6086L112.062 33.5295L112.126 31.429H111.591C110.777 31.429 109.577 30.786 109.449 30.2716C109.384 30.0144 109.32 27.7424 109.32 25.1917C109.32 21.6765 109.384 20.4977 109.599 20.3262C109.748 20.1976 110.348 20.069 110.927 20.0261L111.998 19.9618V16.7467L110.82 16.6824C110.177 16.6395 109.577 16.4895 109.491 16.3609C109.406 16.2109 109.32 14.8176 109.32 13.253V10.4237H103.75V13.1244ZM183.378 10.5523C183.292 10.638 183.228 11.9884 183.228 13.553C183.228 16.5967 183.206 16.6395 182.028 16.6395C181.493 16.6395 181.493 16.661 181.557 18.29C181.621 19.9189 181.643 19.9618 182.2 20.0261C182.499 20.069 182.864 20.219 182.971 20.3476C183.099 20.4977 183.228 23.0912 183.292 26.392C183.356 29.5642 183.463 32.4578 183.549 32.8008C183.806 33.7439 185.134 34.9442 186.398 35.3514C187.812 35.823 191.411 35.8658 191.775 35.4157C191.947 35.2228 192.011 34.4512 191.968 33.3366L191.904 31.5362L191.154 31.4076C190.34 31.279 189.419 30.8503 189.183 30.4859C189.098 30.3573 189.012 28.021 189.012 25.2989C189.012 19.7046 188.883 20.069 190.747 20.069C191.968 20.069 192.075 19.8546 191.968 17.9041L191.904 16.7467L190.511 16.6395L189.119 16.5324L189.012 13.5316L188.905 10.5308L186.206 10.4665C184.727 10.4451 183.463 10.488 183.378 10.5523ZM93.146 16.1251C92.0963 16.4038 90.8752 17.1111 90.0611 17.947C89.0757 18.9758 88.8186 18.9115 88.7115 17.6041L88.6473 16.7467H83.2916V35.6086L85.9909 35.6515C88.6473 35.7158 88.7115 35.6944 88.8401 35.2228C88.9043 34.9656 88.9686 32.2435 88.9686 29.157C88.9686 23.0483 88.99 22.8768 90.2539 21.6765C90.8109 21.1407 91.1109 21.0335 92.3105 20.9692L93.703 20.8835L94.5385 21.7623C95.5239 22.7911 95.4168 21.8051 95.5025 30.6788C95.5239 33.0366 95.5453 35.1156 95.5667 35.33C95.6096 35.6301 95.9523 35.6729 98.3517 35.6301L101.072 35.6086V20.562L100.451 19.3402C99.38 17.2183 97.7304 16.2109 95.2026 16.0822C94.3028 16.0608 93.3816 16.0608 93.146 16.1251ZM119.924 16.1251C117.611 16.7467 116.497 17.3683 115.061 18.7829C113.133 20.7334 112.255 23.0054 112.255 26.0705C112.276 31.4504 115.64 35.4372 120.61 35.9087C124.851 36.316 128.129 35.0728 130.228 32.2649C130.528 31.8577 131.171 30.5502 131.171 30.3144C131.171 30.2287 129.929 30.143 128.429 30.143H125.687L125.044 30.8074C124.294 31.579 123.245 32.072 122.281 32.072C121.317 32.072 119.839 31.3861 119.153 30.6574C118.639 30.0787 117.889 28.4068 117.889 27.8281C117.889 27.6352 119.453 27.5709 124.487 27.5709C128.108 27.5709 131.171 27.4851 131.321 27.3994C131.642 27.1851 131.342 23.7771 130.871 22.5339C129.907 19.9404 128.086 17.7541 126.244 16.9825C125.708 16.7681 125.087 16.4895 124.873 16.3823C124.423 16.1466 120.61 15.9536 119.924 16.1251ZM124.102 20.8192C124.937 21.3979 125.665 22.7697 125.558 23.5413C125.494 24.0343 125.451 24.0343 121.831 24.0986C117.653 24.1629 117.632 24.1414 118.296 22.5982C118.767 21.5265 119.71 20.562 120.588 20.2833C121.595 19.9618 123.223 20.219 124.102 20.8192ZM151.63 16.1251C149.145 16.7896 147.409 17.8827 146.06 19.576C145.524 20.2619 145.096 20.9049 145.096 21.0335C145.096 21.1407 144.946 21.5265 144.753 21.8909C144.56 22.2338 144.282 23.3055 144.132 24.27C143.382 28.8569 145.438 33.1437 149.295 35.0728L150.773 35.823H153.879C157.092 35.823 157.371 35.7587 159.342 34.7084C160.777 33.9368 163.133 30.936 162.769 30.3359C162.684 30.2287 161.463 30.143 160.027 30.143H157.392L156.857 30.7645C154.714 33.1866 150.708 31.9434 149.851 28.5783C149.723 28.1282 149.723 27.7423 149.83 27.6566C149.937 27.5923 153.001 27.5494 156.664 27.5709C161.891 27.5709 163.305 27.528 163.326 27.3137C163.519 24.6344 162.234 20.6691 160.627 18.9544C159.727 17.9899 158.163 16.9182 157.392 16.7253C157.049 16.6395 156.664 16.4895 156.514 16.3823C156.214 16.1466 152.294 15.9536 151.63 16.1251ZM154.971 20.3047C155.935 20.6477 157.049 21.848 157.221 22.7697C157.478 24.1629 157.499 24.1629 153.515 24.0986C149.937 24.0343 149.916 24.0343 149.851 23.5413C149.766 22.9411 150.516 21.4622 151.158 20.9049C152.079 20.1333 153.686 19.8761 154.971 20.3047ZM170.267 16.1251C165.876 17.1754 164.29 18.7401 164.269 21.998C164.269 25.5132 166.026 26.9922 171.231 27.9138C174.809 28.5354 175.837 29.0927 175.794 30.443C175.773 31.4076 175.109 32.0292 173.78 32.3078C172.11 32.6722 170.803 32.2649 169.753 31.0861L168.918 30.143H166.325C164.226 30.143 163.733 30.2073 163.733 30.443C163.733 31.0646 164.59 32.6936 165.297 33.5081C165.961 34.2154 166.475 34.5584 168.489 35.5229C168.682 35.6301 169.732 35.8015 170.781 35.9301C172.731 36.1659 176.116 35.9516 176.972 35.5229C177.165 35.4372 177.722 35.1585 178.194 34.9442C179.415 34.3655 180.571 33.058 181 31.8148C181.471 30.4002 181.343 28.4282 180.679 27.0565C179.886 25.4489 177.787 24.2915 174.659 23.7342C170.631 23.0269 170.567 23.0054 169.924 22.3838C169.153 21.5908 169.153 21.3121 169.924 20.4548C170.546 19.7689 170.589 19.7475 172.302 19.7475C174.016 19.7475 174.059 19.7689 174.68 20.4548C175.023 20.8406 175.301 21.2907 175.301 21.4622C175.301 21.7194 175.751 21.7837 177.979 21.7837C180.936 21.7837 180.85 21.848 180.336 20.3262C179.393 17.6255 176.972 16.2537 172.945 16.1037C171.702 16.0608 170.503 16.0608 170.267 16.1251ZM141.775 16.5752C140.833 16.8967 139.526 17.9684 139.119 18.7401C138.712 19.5117 138.348 19.1902 138.24 17.9041L138.133 16.7467H132.778L132.713 25.749C132.692 30.7002 132.713 34.9656 132.778 35.2443C132.885 35.7158 132.949 35.7158 135.52 35.6729C136.998 35.6515 138.198 35.5229 138.283 35.3943C138.369 35.2871 138.455 33.0151 138.455 30.3573C138.455 26.1562 138.498 25.406 138.862 24.4629C139.612 22.5125 141.218 21.355 143.232 21.355C143.789 21.355 144.025 21.2478 144.089 20.9692C144.239 20.3476 144.26 17.454 144.132 16.811C144.003 16.2966 143.896 16.2109 143.318 16.2323C142.932 16.2537 142.246 16.4038 141.775 16.5752ZM75.7937 16.8967C75.7295 17.0468 75.708 21.2693 75.7295 26.2848L75.7937 35.3943L78.343 35.5015C79.8854 35.5658 80.9994 35.5229 81.1708 35.3943C81.4064 35.2228 81.4707 33.4009 81.4707 26.1134C81.4921 21.1407 81.4279 16.961 81.3636 16.8539C81.1494 16.5324 75.9008 16.5752 75.7937 16.8967Z" fill="#090909"/>
</svg>
