<svg width="140" height="102" viewBox="0 0 140 102" fill="none" xmlns="http://www.w3.org/2000/svg">
<mask id="path-1-outside-1_1313_28551" maskUnits="userSpaceOnUse" x="0" y="0" width="140" height="102" fill="black">
<rect fill="white" width="140" height="102"/>
<path d="M18.762 89.492C19.5861 89.5314 20.4087 89.5511 21.23 89.5511C30.835 89.6417 40.2233 86.743 48.0526 81.2695C52.2303 78.3525 55.7907 74.6636 58.5353 70.4085H58.7084C60.3705 70.3606 61.9982 69.931 63.4614 69.154C64.9246 68.3769 66.1827 67.2741 67.1352 65.9335C67.8288 66.5646 68.6923 66.9862 69.6228 67.1482C70.5532 67.3101 71.5113 67.2055 72.383 66.8468C73.5673 66.4565 74.6087 65.7322 75.3775 64.764C75.8813 65.0227 76.4356 65.1725 77.0031 65.2033C77.5706 65.2341 78.1383 65.1453 78.668 64.9428C79.5119 64.6734 80.2978 64.2526 80.9858 63.7016C79.7253 72.3068 81.2648 82.3531 82.6583 91.4621C83.1461 94.6452 83.6054 97.6539 83.9044 100.371C83.9235 100.544 84.0072 100.704 84.1394 100.82C84.2715 100.936 84.4427 101 84.6197 100.999C84.6459 101 84.6722 101 84.6984 100.999C84.7919 100.989 84.8826 100.961 84.9651 100.917C85.0476 100.873 85.1205 100.813 85.1795 100.741C85.2385 100.669 85.2825 100.586 85.3089 100.497C85.3354 100.408 85.3438 100.315 85.3336 100.224C85.0318 97.4752 84.5682 94.4539 84.079 91.2566C82.5782 81.4482 80.9071 70.5351 82.8028 61.7047C83.7072 60.2766 84.2166 58.6409 84.2807 56.9595L84.3021 56.9061L84.2849 55.921H83.5796L82.8786 56.0617L82.8614 56.6485C82.2633 58.1151 81.7933 59.6291 81.4565 61.1742C80.6837 62.3066 79.5543 63.1579 78.2417 63.5975C77.9063 63.7311 77.5469 63.7969 77.1851 63.7908C76.8232 63.7848 76.4663 63.7071 76.1357 63.5623C76.7112 62.3265 76.9757 60.9726 76.9069 59.615L76.8368 57.4507L75.5992 59.2421C74.097 61.4176 74.1156 62.8178 74.4332 63.6369C73.8278 64.5152 72.9463 65.1741 71.9238 65.5127C71.2948 65.7886 70.5969 65.875 69.918 65.761C69.2392 65.6471 68.6098 65.3379 68.1095 64.8724C68.0547 64.798 68.0069 64.7188 67.9665 64.636C68.6015 63.487 68.9749 62.216 69.0609 60.911L69.1926 58.5835L67.7748 60.4509C67.2769 60.9883 66.8991 61.6223 66.6655 62.3121C66.4319 63.0019 66.3477 63.7322 66.4185 64.4559C65.6707 65.6844 64.6491 66.7299 63.4308 67.5136C62.2125 68.2973 60.8292 68.7988 59.3852 68.9801C59.3852 68.9506 59.3852 68.9224 59.3852 68.8929C60.557 66.7105 61.1842 64.2852 61.215 61.8173C61.2315 61.7322 61.2315 61.6449 61.215 61.5598C61.1874 60.2589 60.9279 58.9729 60.4482 57.7602C62.3357 57.3324 64.2233 56.9262 66.1109 56.5416C82.2877 53.2571 91.8061 51.4657 101.39 50.0852C100.956 51.8593 100.805 53.6889 100.941 55.5087C101.013 55.8492 101.094 56.1724 101.184 56.4783C100.426 57.3072 99.5704 58.0455 98.6362 58.6778C96.3886 59.9696 94.317 60.3228 93.7977 59.8444C93.781 59.8288 93.7656 59.8118 93.7519 59.7937C94.1242 59.3243 94.3774 58.7743 94.4906 58.1895C94.6039 57.6046 94.5738 57.0016 94.4028 56.4304L93.8792 54.7178L93.078 56.3221C92.5361 57.2743 92.2302 58.3389 92.1852 59.4292C91.7261 59.8741 91.2054 60.2531 90.6387 60.555C88.4726 61.723 86.1549 61.8004 85.5282 61.0855C85.0103 60.4931 85.5283 59.0774 86.9046 57.2959C87.0197 57.1466 87.0699 56.9584 87.044 56.7727C87.0181 56.5871 86.9183 56.4191 86.7665 56.3059C86.6147 56.1926 86.4234 56.1433 86.2347 56.1687C86.0459 56.1942 85.8752 56.2924 85.76 56.4417C83.3564 59.5376 83.7141 61.1784 84.4366 62.0045C84.779 62.3363 85.1897 62.5921 85.6411 62.7545C86.0925 62.9169 86.5741 62.9822 87.0534 62.9459C88.5496 62.9022 90.0133 62.5055 91.3211 61.7892C91.8351 61.5152 92.3193 61.1904 92.7661 60.8196C92.7817 60.8366 92.7985 60.8526 92.8162 60.8674C94.1839 62.1241 97.1913 61.1264 99.3502 59.8824C100.218 59.3154 101.018 58.6546 101.735 57.9122C101.972 58.4689 102.32 58.9738 102.757 59.3975C103.194 59.8212 103.712 60.1553 104.282 60.3805C107.731 61.6048 112.377 57.9882 116.112 55.0781C116.567 54.7248 117.005 54.3843 117.417 54.0719C117.567 53.9579 117.665 53.7898 117.69 53.6047C117.714 53.4195 117.662 53.2325 117.546 53.0847C117.431 52.9369 117.26 52.8405 117.071 52.8166C116.883 52.7927 116.693 52.8433 116.543 52.9574C116.127 53.274 115.684 53.6159 115.225 53.9734C111.949 56.5233 107.451 60.0118 104.77 59.0563C104.298 58.8447 103.879 58.5353 103.54 58.1493C103.202 57.7634 102.952 57.31 102.808 56.8202C105.037 54.4514 107.01 51.8618 108.697 49.0931C112.435 48.6301 116.413 48.1882 120.981 47.7098C128.529 46.9175 133.607 47.8871 136.511 50.665C136.903 50.9801 137.204 51.3915 137.382 51.8576C137.56 52.3237 137.61 52.8278 137.527 53.319C136.444 58.9043 119.512 65.8434 111.374 69.1715C109.106 70.1003 107.469 70.7701 106.683 71.1867C106.517 71.276 106.395 71.4259 106.341 71.6036C106.288 71.7813 106.308 71.9726 106.397 72.1359C106.486 72.2992 106.637 72.4213 106.817 72.4757C106.998 72.5301 107.192 72.5124 107.359 72.4264C108.085 72.0437 109.778 71.3485 111.925 70.4704C120.938 66.7806 137.704 59.9161 138.932 53.5836C139.065 52.8636 139.003 52.122 138.753 51.4328C138.503 50.7436 138.074 50.131 137.508 49.656C134.281 46.5601 128.825 45.4723 120.831 46.3082C116.672 46.743 113.002 47.1525 109.557 47.5747C110.565 45.8176 111.191 43.8734 111.394 41.8655C111.479 41.1057 111.357 40.3372 111.041 39.639C110.724 38.9408 110.224 38.3381 109.593 37.8929C109.177 37.5911 108.674 37.4275 108.157 37.4257C107.64 37.4239 107.136 37.5841 106.718 37.8831C104.512 39.3184 102.687 44.2424 101.684 48.6062C91.8977 50.0008 82.3077 51.8006 65.8061 55.1512C63.8031 55.5565 61.8045 55.9881 59.8101 56.4459C57.4623 52.2045 52.9513 50.2456 48.5777 48.3459C45.4214 47.2052 42.4988 45.5165 39.9492 43.36C32.913 36.4435 39.6945 26.1622 41.9407 23.1761C48.2172 14.8298 58.8015 7.52482 70.2542 3.63382C74.9239 2.04646 78.2174 1.99158 80.3191 3.46213C82.3907 4.91018 83.4022 7.9104 83.4122 12.6317C83.4122 12.8183 83.4876 12.9972 83.6218 13.1292C83.7559 13.2612 83.9379 13.3353 84.1276 13.3353C84.3173 13.3353 84.4993 13.2612 84.6334 13.1292C84.7676 12.9972 84.8429 12.8183 84.8429 12.6317C84.8329 7.4249 83.624 4.04755 81.1474 2.31806C78.6437 0.564646 74.9282 0.560419 69.7877 2.3068C58.0732 6.28645 47.2314 13.7758 40.7904 22.3416C38.3725 25.5571 31.0903 36.6461 38.9377 44.3578C41.6073 46.6441 44.6781 48.4328 47.9997 49.6363C52.2031 51.4657 56.1962 53.1952 58.3594 56.7836C52.8641 58.06 47.3988 59.4785 42.0566 60.8646C37.7559 61.9805 33.3079 63.1345 28.9228 64.1955C27.8541 64.4531 26.6337 64.7148 25.3218 64.9991C17.2255 66.7454 4.98731 69.384 1.70815 76.8986C1.20731 77.866 0.965026 78.9429 1.00407 80.0279C1.04312 81.1128 1.36222 82.1701 1.93135 83.1003C4.80418 87.6358 13.8605 89.2499 18.762 89.492ZM102.345 55.2469V55.2258C102.232 53.4272 102.409 51.6224 102.87 49.8783C104.192 49.694 105.524 49.5153 106.876 49.3422C105.522 51.4224 104.008 53.3966 102.345 55.2469V55.2469ZM107.514 39.0736C107.704 38.9364 107.931 38.8575 108.166 38.847C108.39 38.8538 108.605 38.9302 108.781 39.0652C109.213 39.3779 109.551 39.7991 109.761 40.2846C109.97 40.7701 110.043 41.302 109.972 41.8247C109.709 43.9513 108.971 45.9943 107.81 47.8069C106.245 48.0039 104.715 48.2037 103.203 48.412C104.182 44.4633 105.82 40.1811 107.514 39.0736ZM3.02869 77.4615C6.02027 70.6111 17.8249 68.0654 25.6336 66.381C26.9613 66.0995 28.1903 65.8293 29.2691 65.5676C33.667 64.5051 38.1207 63.3498 42.4314 62.2324C47.8681 60.8252 53.4378 59.3772 59.0275 58.0839C59.4897 59.1858 59.7442 60.3612 59.7786 61.5527C58.515 63.7 57.8766 66.1479 57.933 68.6283C55.2537 73.1838 51.5938 77.1079 47.21 80.1254C38.9488 85.88 28.938 88.6884 18.8336 88.0861C14.5286 87.8736 5.71125 86.4059 3.15317 82.3686C2.70587 81.63 2.45945 80.7905 2.43765 79.9311C2.41585 79.0716 2.61939 78.2211 3.02869 77.4615V77.4615Z"/>
</mask>
<path d="M18.762 89.492C19.5861 89.5314 20.4087 89.5511 21.23 89.5511C30.835 89.6417 40.2233 86.743 48.0526 81.2695C52.2303 78.3525 55.7907 74.6636 58.5353 70.4085H58.7084C60.3705 70.3606 61.9982 69.931 63.4614 69.154C64.9246 68.3769 66.1827 67.2741 67.1352 65.9335C67.8288 66.5646 68.6923 66.9862 69.6228 67.1482C70.5532 67.3101 71.5113 67.2055 72.383 66.8468C73.5673 66.4565 74.6087 65.7322 75.3775 64.764C75.8813 65.0227 76.4356 65.1725 77.0031 65.2033C77.5706 65.2341 78.1383 65.1453 78.668 64.9428C79.5119 64.6734 80.2978 64.2526 80.9858 63.7016C79.7253 72.3068 81.2648 82.3531 82.6583 91.4621C83.1461 94.6452 83.6054 97.6539 83.9044 100.371C83.9235 100.544 84.0072 100.704 84.1394 100.82C84.2715 100.936 84.4427 101 84.6197 100.999C84.6459 101 84.6722 101 84.6984 100.999C84.7919 100.989 84.8826 100.961 84.9651 100.917C85.0476 100.873 85.1205 100.813 85.1795 100.741C85.2385 100.669 85.2825 100.586 85.3089 100.497C85.3354 100.408 85.3438 100.315 85.3336 100.224C85.0318 97.4752 84.5682 94.4539 84.079 91.2566C82.5782 81.4482 80.9071 70.5351 82.8028 61.7047C83.7072 60.2766 84.2166 58.6409 84.2807 56.9595L84.3021 56.9061L84.2849 55.921H83.5796L82.8786 56.0617L82.8614 56.6485C82.2633 58.1151 81.7933 59.6291 81.4565 61.1742C80.6837 62.3066 79.5543 63.1579 78.2417 63.5975C77.9063 63.7311 77.5469 63.7969 77.1851 63.7908C76.8232 63.7848 76.4663 63.7071 76.1357 63.5623C76.7112 62.3265 76.9757 60.9726 76.9069 59.615L76.8368 57.4507L75.5992 59.2421C74.097 61.4176 74.1156 62.8178 74.4332 63.6369C73.8278 64.5152 72.9463 65.1741 71.9238 65.5127C71.2948 65.7886 70.5969 65.875 69.918 65.761C69.2392 65.6471 68.6098 65.3379 68.1095 64.8724C68.0547 64.798 68.0069 64.7188 67.9665 64.636C68.6015 63.487 68.9749 62.216 69.0609 60.911L69.1926 58.5835L67.7748 60.4509C67.2769 60.9883 66.8991 61.6223 66.6655 62.3121C66.4319 63.0019 66.3477 63.7322 66.4185 64.4559C65.6707 65.6844 64.6491 66.7299 63.4308 67.5136C62.2125 68.2973 60.8292 68.7988 59.3852 68.9801C59.3852 68.9506 59.3852 68.9224 59.3852 68.8929C60.557 66.7105 61.1842 64.2852 61.215 61.8173C61.2315 61.7322 61.2315 61.6449 61.215 61.5598C61.1874 60.2589 60.9279 58.9729 60.4482 57.7602C62.3357 57.3324 64.2233 56.9262 66.1109 56.5416C82.2877 53.2571 91.8061 51.4657 101.39 50.0852C100.956 51.8593 100.805 53.6889 100.941 55.5087C101.013 55.8492 101.094 56.1724 101.184 56.4783C100.426 57.3072 99.5704 58.0455 98.6362 58.6778C96.3886 59.9696 94.317 60.3228 93.7977 59.8444C93.781 59.8288 93.7656 59.8118 93.7519 59.7937C94.1242 59.3243 94.3774 58.7743 94.4906 58.1895C94.6039 57.6046 94.5738 57.0016 94.4028 56.4304L93.8792 54.7178L93.078 56.3221C92.5361 57.2743 92.2302 58.3389 92.1852 59.4292C91.7261 59.8741 91.2054 60.2531 90.6387 60.555C88.4726 61.723 86.1549 61.8004 85.5282 61.0855C85.0103 60.4931 85.5283 59.0774 86.9046 57.2959C87.0197 57.1466 87.0699 56.9584 87.044 56.7727C87.0181 56.5871 86.9183 56.4191 86.7665 56.3059C86.6147 56.1926 86.4234 56.1433 86.2347 56.1687C86.0459 56.1942 85.8752 56.2924 85.76 56.4417C83.3564 59.5376 83.7141 61.1784 84.4366 62.0045C84.779 62.3363 85.1897 62.5921 85.6411 62.7545C86.0925 62.9169 86.5741 62.9822 87.0534 62.9459C88.5496 62.9022 90.0133 62.5055 91.3211 61.7892C91.8351 61.5152 92.3193 61.1904 92.7661 60.8196C92.7817 60.8366 92.7985 60.8526 92.8162 60.8674C94.1839 62.1241 97.1913 61.1264 99.3502 59.8824C100.218 59.3154 101.018 58.6546 101.735 57.9122C101.972 58.4689 102.32 58.9738 102.757 59.3975C103.194 59.8212 103.712 60.1553 104.282 60.3805C107.731 61.6048 112.377 57.9882 116.112 55.0781C116.567 54.7248 117.005 54.3843 117.417 54.0719C117.567 53.9579 117.665 53.7898 117.69 53.6047C117.714 53.4195 117.662 53.2325 117.546 53.0847C117.431 52.9369 117.26 52.8405 117.071 52.8166C116.883 52.7927 116.693 52.8433 116.543 52.9574C116.127 53.274 115.684 53.6159 115.225 53.9734C111.949 56.5233 107.451 60.0118 104.77 59.0563C104.298 58.8447 103.879 58.5353 103.54 58.1493C103.202 57.7634 102.952 57.31 102.808 56.8202C105.037 54.4514 107.01 51.8618 108.697 49.0931C112.435 48.6301 116.413 48.1882 120.981 47.7098C128.529 46.9175 133.607 47.8871 136.511 50.665C136.903 50.9801 137.204 51.3915 137.382 51.8576C137.56 52.3237 137.61 52.8278 137.527 53.319C136.444 58.9043 119.512 65.8434 111.374 69.1715C109.106 70.1003 107.469 70.7701 106.683 71.1867C106.517 71.276 106.395 71.4259 106.341 71.6036C106.288 71.7813 106.308 71.9726 106.397 72.1359C106.486 72.2992 106.637 72.4213 106.817 72.4757C106.998 72.5301 107.192 72.5124 107.359 72.4264C108.085 72.0437 109.778 71.3485 111.925 70.4704C120.938 66.7806 137.704 59.9161 138.932 53.5836C139.065 52.8636 139.003 52.122 138.753 51.4328C138.503 50.7436 138.074 50.131 137.508 49.656C134.281 46.5601 128.825 45.4723 120.831 46.3082C116.672 46.743 113.002 47.1525 109.557 47.5747C110.565 45.8176 111.191 43.8734 111.394 41.8655C111.479 41.1057 111.357 40.3372 111.041 39.639C110.724 38.9408 110.224 38.3381 109.593 37.8929C109.177 37.5911 108.674 37.4275 108.157 37.4257C107.64 37.4239 107.136 37.5841 106.718 37.8831C104.512 39.3184 102.687 44.2424 101.684 48.6062C91.8977 50.0008 82.3077 51.8006 65.8061 55.1512C63.8031 55.5565 61.8045 55.9881 59.8101 56.4459C57.4623 52.2045 52.9513 50.2456 48.5777 48.3459C45.4214 47.2052 42.4988 45.5165 39.9492 43.36C32.913 36.4435 39.6945 26.1622 41.9407 23.1761C48.2172 14.8298 58.8015 7.52482 70.2542 3.63382C74.9239 2.04646 78.2174 1.99158 80.3191 3.46213C82.3907 4.91018 83.4022 7.9104 83.4122 12.6317C83.4122 12.8183 83.4876 12.9972 83.6218 13.1292C83.7559 13.2612 83.9379 13.3353 84.1276 13.3353C84.3173 13.3353 84.4993 13.2612 84.6334 13.1292C84.7676 12.9972 84.8429 12.8183 84.8429 12.6317C84.8329 7.4249 83.624 4.04755 81.1474 2.31806C78.6437 0.564646 74.9282 0.560419 69.7877 2.3068C58.0732 6.28645 47.2314 13.7758 40.7904 22.3416C38.3725 25.5571 31.0903 36.6461 38.9377 44.3578C41.6073 46.6441 44.6781 48.4328 47.9997 49.6363C52.2031 51.4657 56.1962 53.1952 58.3594 56.7836C52.8641 58.06 47.3988 59.4785 42.0566 60.8646C37.7559 61.9805 33.3079 63.1345 28.9228 64.1955C27.8541 64.4531 26.6337 64.7148 25.3218 64.9991C17.2255 66.7454 4.98731 69.384 1.70815 76.8986C1.20731 77.866 0.965026 78.9429 1.00407 80.0279C1.04312 81.1128 1.36222 82.1701 1.93135 83.1003C4.80418 87.6358 13.8605 89.2499 18.762 89.492ZM102.345 55.2469V55.2258C102.232 53.4272 102.409 51.6224 102.87 49.8783C104.192 49.694 105.524 49.5153 106.876 49.3422C105.522 51.4224 104.008 53.3966 102.345 55.2469V55.2469ZM107.514 39.0736C107.704 38.9364 107.931 38.8575 108.166 38.847C108.39 38.8538 108.605 38.9302 108.781 39.0652C109.213 39.3779 109.551 39.7991 109.761 40.2846C109.97 40.7701 110.043 41.302 109.972 41.8247C109.709 43.9513 108.971 45.9943 107.81 47.8069C106.245 48.0039 104.715 48.2037 103.203 48.412C104.182 44.4633 105.82 40.1811 107.514 39.0736ZM3.02869 77.4615C6.02027 70.6111 17.8249 68.0654 25.6336 66.381C26.9613 66.0995 28.1903 65.8293 29.2691 65.5676C33.667 64.5051 38.1207 63.3498 42.4314 62.2324C47.8681 60.8252 53.4378 59.3772 59.0275 58.0839C59.4897 59.1858 59.7442 60.3612 59.7786 61.5527C58.515 63.7 57.8766 66.1479 57.933 68.6283C55.2537 73.1838 51.5938 77.1079 47.21 80.1254C38.9488 85.88 28.938 88.6884 18.8336 88.0861C14.5286 87.8736 5.71125 86.4059 3.15317 82.3686C2.70587 81.63 2.45945 80.7905 2.43765 79.9311C2.41585 79.0716 2.61939 78.2211 3.02869 77.4615V77.4615Z" fill="#FF9C08"/>
<path d="M18.762 89.492C19.5861 89.5314 20.4087 89.5511 21.23 89.5511C30.835 89.6417 40.2233 86.743 48.0526 81.2695C52.2303 78.3525 55.7907 74.6636 58.5353 70.4085H58.7084C60.3705 70.3606 61.9982 69.931 63.4614 69.154C64.9246 68.3769 66.1827 67.2741 67.1352 65.9335C67.8288 66.5646 68.6923 66.9862 69.6228 67.1482C70.5532 67.3101 71.5113 67.2055 72.383 66.8468C73.5673 66.4565 74.6087 65.7322 75.3775 64.764C75.8813 65.0227 76.4356 65.1725 77.0031 65.2033C77.5706 65.2341 78.1383 65.1453 78.668 64.9428C79.5119 64.6734 80.2978 64.2526 80.9858 63.7016C79.7253 72.3068 81.2648 82.3531 82.6583 91.4621C83.1461 94.6452 83.6054 97.6539 83.9044 100.371C83.9235 100.544 84.0072 100.704 84.1394 100.82C84.2715 100.936 84.4427 101 84.6197 100.999C84.6459 101 84.6722 101 84.6984 100.999C84.7919 100.989 84.8826 100.961 84.9651 100.917C85.0476 100.873 85.1205 100.813 85.1795 100.741C85.2385 100.669 85.2825 100.586 85.3089 100.497C85.3354 100.408 85.3438 100.315 85.3336 100.224C85.0318 97.4752 84.5682 94.4539 84.079 91.2566C82.5782 81.4482 80.9071 70.5351 82.8028 61.7047C83.7072 60.2766 84.2166 58.6409 84.2807 56.9595L84.3021 56.9061L84.2849 55.921H83.5796L82.8786 56.0617L82.8614 56.6485C82.2633 58.1151 81.7933 59.6291 81.4565 61.1742C80.6837 62.3066 79.5543 63.1579 78.2417 63.5975C77.9063 63.7311 77.5469 63.7969 77.1851 63.7908C76.8232 63.7848 76.4663 63.7071 76.1357 63.5623C76.7112 62.3265 76.9757 60.9726 76.9069 59.615L76.8368 57.4507L75.5992 59.2421C74.097 61.4176 74.1156 62.8178 74.4332 63.6369C73.8278 64.5152 72.9463 65.1741 71.9238 65.5127C71.2948 65.7886 70.5969 65.875 69.918 65.761C69.2392 65.6471 68.6098 65.3379 68.1095 64.8724C68.0547 64.798 68.0069 64.7188 67.9665 64.636C68.6015 63.487 68.9749 62.216 69.0609 60.911L69.1926 58.5835L67.7748 60.4509C67.2769 60.9883 66.8991 61.6223 66.6655 62.3121C66.4319 63.0019 66.3477 63.7322 66.4185 64.4559C65.6707 65.6844 64.6491 66.7299 63.4308 67.5136C62.2125 68.2973 60.8292 68.7988 59.3852 68.9801C59.3852 68.9506 59.3852 68.9224 59.3852 68.8929C60.557 66.7105 61.1842 64.2852 61.215 61.8173C61.2315 61.7322 61.2315 61.6449 61.215 61.5598C61.1874 60.2589 60.9279 58.9729 60.4482 57.7602C62.3357 57.3324 64.2233 56.9262 66.1109 56.5416C82.2877 53.2571 91.8061 51.4657 101.39 50.0852C100.956 51.8593 100.805 53.6889 100.941 55.5087C101.013 55.8492 101.094 56.1724 101.184 56.4783C100.426 57.3072 99.5704 58.0455 98.6362 58.6778C96.3886 59.9696 94.317 60.3228 93.7977 59.8444C93.781 59.8288 93.7656 59.8118 93.7519 59.7937C94.1242 59.3243 94.3774 58.7743 94.4906 58.1895C94.6039 57.6046 94.5738 57.0016 94.4028 56.4304L93.8792 54.7178L93.078 56.3221C92.5361 57.2743 92.2302 58.3389 92.1852 59.4292C91.7261 59.8741 91.2054 60.2531 90.6387 60.555C88.4726 61.723 86.1549 61.8004 85.5282 61.0855C85.0103 60.4931 85.5283 59.0774 86.9046 57.2959C87.0197 57.1466 87.0699 56.9584 87.044 56.7727C87.0181 56.5871 86.9183 56.4191 86.7665 56.3059C86.6147 56.1926 86.4234 56.1433 86.2347 56.1687C86.0459 56.1942 85.8752 56.2924 85.76 56.4417C83.3564 59.5376 83.7141 61.1784 84.4366 62.0045C84.779 62.3363 85.1897 62.5921 85.6411 62.7545C86.0925 62.9169 86.5741 62.9822 87.0534 62.9459C88.5496 62.9022 90.0133 62.5055 91.3211 61.7892C91.8351 61.5152 92.3193 61.1904 92.7661 60.8196C92.7817 60.8366 92.7985 60.8526 92.8162 60.8674C94.1839 62.1241 97.1913 61.1264 99.3502 59.8824C100.218 59.3154 101.018 58.6546 101.735 57.9122C101.972 58.4689 102.32 58.9738 102.757 59.3975C103.194 59.8212 103.712 60.1553 104.282 60.3805C107.731 61.6048 112.377 57.9882 116.112 55.0781C116.567 54.7248 117.005 54.3843 117.417 54.0719C117.567 53.9579 117.665 53.7898 117.69 53.6047C117.714 53.4195 117.662 53.2325 117.546 53.0847C117.431 52.9369 117.26 52.8405 117.071 52.8166C116.883 52.7927 116.693 52.8433 116.543 52.9574C116.127 53.274 115.684 53.6159 115.225 53.9734C111.949 56.5233 107.451 60.0118 104.77 59.0563C104.298 58.8447 103.879 58.5353 103.54 58.1493C103.202 57.7634 102.952 57.31 102.808 56.8202C105.037 54.4514 107.01 51.8618 108.697 49.0931C112.435 48.6301 116.413 48.1882 120.981 47.7098C128.529 46.9175 133.607 47.8871 136.511 50.665C136.903 50.9801 137.204 51.3915 137.382 51.8576C137.56 52.3237 137.61 52.8278 137.527 53.319C136.444 58.9043 119.512 65.8434 111.374 69.1715C109.106 70.1003 107.469 70.7701 106.683 71.1867C106.517 71.276 106.395 71.4259 106.341 71.6036C106.288 71.7813 106.308 71.9726 106.397 72.1359C106.486 72.2992 106.637 72.4213 106.817 72.4757C106.998 72.5301 107.192 72.5124 107.359 72.4264C108.085 72.0437 109.778 71.3485 111.925 70.4704C120.938 66.7806 137.704 59.9161 138.932 53.5836C139.065 52.8636 139.003 52.122 138.753 51.4328C138.503 50.7436 138.074 50.131 137.508 49.656C134.281 46.5601 128.825 45.4723 120.831 46.3082C116.672 46.743 113.002 47.1525 109.557 47.5747C110.565 45.8176 111.191 43.8734 111.394 41.8655C111.479 41.1057 111.357 40.3372 111.041 39.639C110.724 38.9408 110.224 38.3381 109.593 37.8929C109.177 37.5911 108.674 37.4275 108.157 37.4257C107.64 37.4239 107.136 37.5841 106.718 37.8831C104.512 39.3184 102.687 44.2424 101.684 48.6062C91.8977 50.0008 82.3077 51.8006 65.8061 55.1512C63.8031 55.5565 61.8045 55.9881 59.8101 56.4459C57.4623 52.2045 52.9513 50.2456 48.5777 48.3459C45.4214 47.2052 42.4988 45.5165 39.9492 43.36C32.913 36.4435 39.6945 26.1622 41.9407 23.1761C48.2172 14.8298 58.8015 7.52482 70.2542 3.63382C74.9239 2.04646 78.2174 1.99158 80.3191 3.46213C82.3907 4.91018 83.4022 7.9104 83.4122 12.6317C83.4122 12.8183 83.4876 12.9972 83.6218 13.1292C83.7559 13.2612 83.9379 13.3353 84.1276 13.3353C84.3173 13.3353 84.4993 13.2612 84.6334 13.1292C84.7676 12.9972 84.8429 12.8183 84.8429 12.6317C84.8329 7.4249 83.624 4.04755 81.1474 2.31806C78.6437 0.564646 74.9282 0.560419 69.7877 2.3068C58.0732 6.28645 47.2314 13.7758 40.7904 22.3416C38.3725 25.5571 31.0903 36.6461 38.9377 44.3578C41.6073 46.6441 44.6781 48.4328 47.9997 49.6363C52.2031 51.4657 56.1962 53.1952 58.3594 56.7836C52.8641 58.06 47.3988 59.4785 42.0566 60.8646C37.7559 61.9805 33.3079 63.1345 28.9228 64.1955C27.8541 64.4531 26.6337 64.7148 25.3218 64.9991C17.2255 66.7454 4.98731 69.384 1.70815 76.8986C1.20731 77.866 0.965026 78.9429 1.00407 80.0279C1.04312 81.1128 1.36222 82.1701 1.93135 83.1003C4.80418 87.6358 13.8605 89.2499 18.762 89.492ZM102.345 55.2469V55.2258C102.232 53.4272 102.409 51.6224 102.87 49.8783C104.192 49.694 105.524 49.5153 106.876 49.3422C105.522 51.4224 104.008 53.3966 102.345 55.2469V55.2469ZM107.514 39.0736C107.704 38.9364 107.931 38.8575 108.166 38.847C108.39 38.8538 108.605 38.9302 108.781 39.0652C109.213 39.3779 109.551 39.7991 109.761 40.2846C109.97 40.7701 110.043 41.302 109.972 41.8247C109.709 43.9513 108.971 45.9943 107.81 47.8069C106.245 48.0039 104.715 48.2037 103.203 48.412C104.182 44.4633 105.82 40.1811 107.514 39.0736ZM3.02869 77.4615C6.02027 70.6111 17.8249 68.0654 25.6336 66.381C26.9613 66.0995 28.1903 65.8293 29.2691 65.5676C33.667 64.5051 38.1207 63.3498 42.4314 62.2324C47.8681 60.8252 53.4378 59.3772 59.0275 58.0839C59.4897 59.1858 59.7442 60.3612 59.7786 61.5527C58.515 63.7 57.8766 66.1479 57.933 68.6283C55.2537 73.1838 51.5938 77.1079 47.21 80.1254C38.9488 85.88 28.938 88.6884 18.8336 88.0861C14.5286 87.8736 5.71125 86.4059 3.15317 82.3686C2.70587 81.63 2.45945 80.7905 2.43765 79.9311C2.41585 79.0716 2.61939 78.2211 3.02869 77.4615V77.4615Z" stroke="#FF9C08" stroke-width="0.46" mask="url(#path-1-outside-1_1313_28551)"/>
</svg>
