<svg width="148" height="50" viewBox="0 0 148 50" fill="none" xmlns="http://www.w3.org/2000/svg">
<path d="M141.509 9.21053H135.018V0H120.764L114.209 9.21053H102.561L98.6667 13.1579V9.21053H89.5789V0H61.0175V9.21053H20.8368L14.2807 0H0V31.5789L18.1754 50H36.3509V44.7368L41.5439 50H76.5965V44.7368L81.7895 50H98.6667V44.7368L103.86 50H136.316L148 38.1579V15.7895L141.509 9.21053ZM22.0702 22.3684H12.9825V25H22.0702V35.5263H7.78947L2.59649 30.2632V2.63158H12.9825V11.8421H22.0702V22.3684ZM61.0175 35.5263H29.8596L24.6667 30.2632V11.8421H35.0526V25H37.6491V11.8421H48.0351V25H50.6316V11.8421H61.0175V35.5263ZM74 35.5263H63.614V11.8421H74V35.5263ZM74 9.21053H63.614V2.63158H74V9.21053ZM96.0702 22.3684H86.9825V25H96.0702V35.5263H81.7895L76.5965 30.2632V2.63158H86.9825V11.8421H96.0702V22.3684ZM119.439 22.3684H109.053V25H119.439V35.5263H103.86L98.6667 30.2632V17.1053L103.86 11.8421H119.439V22.3684ZM145.404 35.5263H135.018V22.3684H132.421V35.5263H122.035V2.63158H132.421V11.8421H140.211L145.404 17.1053V35.5263Z" fill="#090909"/>
</svg>
