<svg width="184" height="46" viewBox="0 0 184 46" fill="none" xmlns="http://www.w3.org/2000/svg">
<path d="M59.4136 17.9882C59.4136 14.7073 56.2039 11.2228 50.6495 11.2228C44.4122 11.2228 37.5603 15.7708 36.5132 24.8441C35.4433 34.0079 41.1798 38.0807 46.9618 38.0807C52.7438 38.0807 55.7714 35.8406 58.8673 32.8539C56.2039 29.5278 52.7665 31.0664 52.1064 31.4058C51.378 31.7678 50.4446 32.2656 48.5325 32.2656C46.3016 32.2656 44.0252 31.27 44.0252 27.1294C58.3209 25.7265 59.4136 21.2691 59.4136 17.9882ZM52.334 18.5312C52.243 19.5494 51.8332 21.2917 44.5943 22.2646C46.1195 16.8795 49.0333 16.4722 50.3763 16.4722C51.6284 16.4722 52.4251 17.4452 52.334 18.5312ZM28.1133 19.4137C28.1133 19.4137 25.0402 29.0074 24.7898 29.7993C24.6988 28.9847 22.4451 11.7659 22.4451 11.7659C17.2095 11.7659 14.4095 15.4766 12.9299 19.391C12.9299 19.391 9.19659 29.0074 8.87789 29.8219C8.85513 29.0753 8.3088 19.5042 8.3088 19.5042C7.9901 14.7073 3.57392 11.7885 0 11.7885L4.32513 37.877C9.81121 37.8544 12.7705 34.1663 14.3184 30.2518C14.3184 30.2518 17.6192 21.7668 17.7558 21.3822C17.7785 21.7442 20.1232 37.877 20.1232 37.877C25.6321 37.877 28.5914 34.4151 30.1848 30.6365L37.9018 11.7885C32.4612 11.7885 29.593 15.4766 28.1133 19.4137ZM79.6279 11.1776C76.2361 11.1776 73.641 13.0103 71.4556 15.7029V15.6803L73.4133 0C68.9061 0 65.2411 3.89179 64.5354 9.68421L61.1209 37.6734C63.7159 37.6734 66.4704 36.9267 67.95 35.0261C69.2703 36.7231 71.2508 38.0807 74.1873 38.0807C81.7904 38.0807 87.0033 29.3015 87.0033 21.0654C86.9578 13.5534 83.2928 11.1776 79.6279 11.1776ZM78.9222 24.6404C78.1255 29.2336 75.5531 32.3561 73.0719 32.3561C70.5679 32.3561 69.498 31.2474 69.498 31.2474C69.976 27.2199 70.2719 24.7536 71.1825 22.6267C72.093 20.4998 74.2556 17.1058 76.5092 17.1058C78.7173 17.1058 79.7189 20.0246 78.9222 24.6404ZM105.988 11.7885H100.684L100.707 11.517C101.071 8.07772 101.891 6.26758 104.6 5.97344C106.444 5.79242 107.263 4.8421 107.468 3.80128C107.627 2.98672 108.128 0.158387 108.128 0.158387C97.4747 0.0905066 94.1284 4.66109 93.2634 11.6301L93.2406 11.7885H93.1268C91.3968 11.7885 89.4846 13.7344 89.1659 16.2007L89.0521 17.1058H92.6032L89.6212 41.5878L88.7106 45.9774C88.8245 45.9774 88.961 46 89.0748 46C94.0601 45.819 97.2471 41.9046 97.9527 36.2253L100.275 17.1058H101.936C103.575 17.1058 105.488 15.4766 105.829 12.7614L105.988 11.7885ZM133.578 11.336C127.455 11.336 121.673 15.816 119.897 22.8529C118.121 29.8898 120.808 38.2164 129.822 38.2164C138.814 38.2164 144.004 29.5504 144.004 22.3325C144.004 15.1599 139.11 11.336 133.578 11.336ZM136.059 24.4142C135.741 27.6045 134.329 32.4466 130.459 32.4466C126.567 32.4466 127.113 26.79 127.5 24.0974C127.91 21.2238 129.526 17.1284 133.009 17.1284C136.128 17.1284 136.424 20.8165 136.059 24.4142ZM174.257 19.4137C174.257 19.4137 171.184 29.0074 170.934 29.7993C170.843 28.9847 168.589 11.7659 168.589 11.7659C163.353 11.7659 160.553 15.4766 159.074 19.391C159.074 19.391 155.34 29.0074 155.022 29.8219C154.999 29.0753 154.453 19.5042 154.453 19.5042C154.134 14.7073 149.718 11.7885 146.144 11.7885L150.446 37.877C155.932 37.8544 158.892 34.1663 160.439 30.2518C160.439 30.2518 163.74 21.7668 163.854 21.3822C163.9 21.7442 166.221 37.877 166.221 37.877C171.73 37.877 174.69 34.4151 176.283 30.6365L184 11.7885C178.582 11.7885 175.714 15.4766 174.257 19.4137ZM110.996 0.158387L106.535 35.9311L105.624 40.3433C105.738 40.3433 105.875 40.366 105.988 40.366C110.792 40.2981 114.206 36.1121 114.844 30.8401L117.416 10.3178C118.19 4.05017 114.434 0.158387 110.996 0.158387Z" fill="#090909"/>
</svg>
