<svg width="172" height="38" viewBox="0 0 172 38" fill="none" xmlns="http://www.w3.org/2000/svg">
<path d="M28.6869 37.9513L17.4155 37.7451C13.766 37.6734 10.1075 37.8168 6.5297 37.0726C1.08681 35.9609 0.701232 30.5095 0.297722 25.9368C-0.258225 19.5082 -0.0430194 12.963 1.00611 6.58817C1.59792 3.01072 3.92931 0.876809 7.53399 0.643692C19.7021 -0.199114 31.9508 -0.100488 44.092 0.294017C45.3742 0.329881 46.6655 0.527134 47.9298 0.751285C54.1707 1.84514 54.3232 8.02273 54.7267 13.223C55.1302 18.4771 54.9598 23.7581 54.1887 28.9763C53.57 33.2979 52.3863 36.9202 47.3918 37.2699C41.1329 37.7272 35.0175 38.0948 28.7407 37.9782C28.7407 37.9513 28.7048 37.9513 28.6869 37.9513V37.9513ZM22.0603 27.0128C26.7769 24.305 31.4038 21.6421 36.0935 18.9523C31.368 16.2446 26.75 13.5817 22.0603 10.8919V27.0128Z" fill="#090909"/>
<path d="M145.134 33.0382C144.919 33.9169 144.731 34.6073 144.542 35.3425H140.131V1.3161H145.278V13.8687C145.547 13.5279 145.681 13.3845 145.798 13.2321C146.677 12.0216 147.815 11.2326 149.286 10.9278C151.626 10.4705 153.626 11.5016 154.334 13.7521C154.792 15.1508 155.088 16.6482 155.123 18.1096C155.195 21.8664 155.141 25.6143 155.007 29.3711C154.953 30.5187 154.603 31.6933 154.164 32.7692C152.72 36.3198 148.004 36.8578 145.663 33.7824C145.52 33.5941 145.385 33.3879 145.134 33.0382V33.0382ZM145.385 23.6776V29.9001C145.385 30.9132 145.923 31.5319 146.937 31.765C147.932 31.9981 148.739 31.6126 149.142 30.6891C149.313 30.3035 149.483 29.9001 149.492 29.4966C149.591 25.695 149.68 21.8933 149.707 18.0827C149.707 17.3744 149.537 16.6392 149.322 15.9488C148.918 14.7025 147.806 14.3349 146.712 15.0612C145.888 15.6171 145.385 16.4061 145.385 17.4551V23.6776ZM131.397 11.4119H136.786V35.3604H132.581C132.428 34.4548 132.276 33.5224 132.096 32.4285C131.81 32.8499 131.639 33.1189 131.46 33.3879C130.061 35.4053 128.079 36.0956 125.739 35.728C123.739 35.4053 122.538 33.8631 122.269 31.3346C122.188 30.5815 122.152 29.8194 122.152 29.0662C122.134 23.4624 122.152 17.8406 122.152 12.2368V11.394H127.604V12.3713C127.604 17.7868 127.586 23.1934 127.622 28.6089C127.622 29.38 127.703 30.178 127.837 30.9491C127.99 31.7381 128.564 32.025 129.335 31.9712C130.581 31.8726 131.442 30.9491 131.442 29.7118V12.4699C131.397 12.1203 131.397 11.7975 131.397 11.4119V11.4119ZM94.2921 11.394H99.7081V12.4072C99.7081 17.7958 99.6902 23.1755 99.7261 28.5462C99.7261 29.3173 99.7978 30.1153 99.9592 30.8684C100.165 31.756 100.686 32.043 101.573 31.9264C102.802 31.7561 103.546 30.9043 103.555 29.658V12.5058V11.4299H108.944V35.3604H104.756C104.604 34.4728 104.452 33.5582 104.254 32.4016C103.985 32.8051 103.833 33.0382 103.68 33.2803C102.282 35.3335 100.318 36.0867 97.9237 35.7191C96.0048 35.4322 94.8302 34.0155 94.4715 31.6933C94.3728 30.967 94.3011 30.2497 94.3011 29.5235C94.2832 23.7045 94.2832 17.8586 94.2832 12.0396L94.2921 11.394ZM91.5124 24.1797C91.4945 24.9866 91.4407 25.7936 91.3958 26.6005C91.1896 29.0214 91.091 32.4554 89.1362 34.2217C87.8898 35.3335 86.3116 35.737 84.6797 35.7908C83.9533 35.8087 83.2181 35.8087 82.4917 35.7101C79.0574 35.1901 77.4613 33.6748 76.8875 29.9001C76.2329 25.5425 76.1791 21.1133 76.9592 16.7557C77.7662 12.2458 80.5459 10.6498 84.868 10.9457C88.9031 11.2326 90.7054 13.8776 91.1806 17.6434C91.4407 19.8042 91.5662 21.992 91.5124 24.1797V24.1797ZM86.0247 23.3548C86.0247 21.8216 86.0606 20.2794 86.0068 18.7462C85.9709 17.8586 85.8543 16.962 85.666 16.0833C85.4508 15.0701 84.8052 14.5859 83.9982 14.6039C83.2091 14.6218 82.6531 15.106 82.3662 16.0474C82.2676 16.3971 82.16 16.7557 82.16 17.1054C82.16 19.5083 82.142 21.9202 82.1241 24.3231C82.1062 26.5647 81.8192 28.9138 82.5276 31.0567C82.7428 31.7112 83.2988 32.0699 84.0251 32.0699C84.7335 32.0699 85.1997 31.7202 85.4598 31.0926C85.666 30.6084 85.8454 30.0794 85.8454 29.5594C85.9081 27.4971 86.0247 25.426 86.0247 23.3548ZM68.9787 18.8449C69.4539 16.5226 69.9023 14.2542 70.3954 11.9768C71.0142 9.08076 71.7046 6.1847 72.3144 3.27968C72.4668 2.57136 72.7537 2.401 73.4262 2.41893C74.8699 2.47273 76.3405 2.43687 77.8828 2.43687C77.3806 4.28388 76.8875 6.04124 76.4032 7.7717C74.8699 13.2052 73.3366 18.6566 71.8212 24.108C71.7046 24.5294 71.6508 24.9866 71.6508 25.4349C71.6329 28.4117 71.6508 31.3795 71.6508 34.3562V35.3246H66.3872C66.3693 35.0556 66.3334 34.7866 66.3334 34.5176C66.3334 32.832 66.1989 31.1374 66.3514 29.4697C66.737 25.4618 65.4637 21.7768 64.4325 18.0469C63.0695 13.1155 61.6886 8.16621 60.3256 3.23485C60.2539 3.00173 60.227 2.75068 60.1553 2.46376H65.5264C66.6563 7.90619 67.795 13.3486 68.9787 18.8449ZM171.963 25.0942H162.889C162.987 26.9143 163.023 28.6448 163.211 30.3573C163.346 31.5498 164.001 32.0609 165.032 32.0699C166.108 32.0878 166.735 31.5498 166.987 30.3663C167.067 29.9808 167.121 29.5952 167.157 29.2007C167.193 28.851 167.211 28.4745 167.238 27.9724C168.771 28.053 170.268 28.1427 171.748 28.2055C172.609 30.7608 171.058 34.0424 168.448 35.0556C166.395 35.8625 164.288 35.8625 162.189 35.2439C160.638 34.7866 159.481 33.8003 158.961 32.2851C158.477 30.8684 158.02 29.389 157.921 27.9096C157.652 24.2604 157.553 20.5753 158.109 16.9171C158.208 16.3074 158.378 15.7246 158.567 15.1329C159.32 12.6941 160.961 11.1968 163.498 10.9457C164.879 10.8112 166.305 10.865 167.668 11.0981C169.874 11.4837 171.049 13.0707 171.56 15.1508C171.793 16.1281 171.963 17.1323 171.999 18.1276C172.008 20.4139 171.963 22.6823 171.963 25.0942ZM166.807 21.9471C166.807 20.1449 166.825 18.4503 166.789 16.7468C166.789 16.3433 166.637 15.9219 166.484 15.5364C166.18 14.7832 165.543 14.577 164.781 14.577C164.019 14.577 163.534 14.9625 163.346 15.6529C162.772 17.7241 162.96 19.8401 162.978 21.9651C164.35 21.9471 165.597 21.9471 166.807 21.9471V21.9471Z" fill="#090909"/>
<path d="M113.104 6.83118H107.769V2.50951H123.694V6.80428H118.394V35.3255H113.113L113.104 6.83118Z" fill="#090909"/>
</svg>
